<svg xmlns="http://www.w3.org/2000/svg" width="151.043" height="36.762" viewBox="0 0 151.043 36.762">
  <g id="loachella-logo" transform="translate(-8.384 -22.592)">
    <path id="subtitle" d="M7.177,11.435l.013,2.483,1.359.013,1.359.013V13.3H9.016c-.684,0-.9-.016-.947-.067A16.16,16.16,0,0,1,8,11.071l-.013-2.09-.412-.014-.412-.015.013,2.484m4.577-2.4a.566.566,0,0,1-.21.073,1.575,1.575,0,0,0-.838.888.645.645,0,0,1-.086.236,8.407,8.407,0,0,0-.031,2.274.826.826,0,0,1,.092.287,1.657,1.657,0,0,0,2.01,1.086,1.4,1.4,0,0,1,.315-.1c.942-.17,1.36-2.619.681-4-.11-.224-.309-.473-.378-.473a.429.429,0,0,1-.16-.1.426.426,0,0,0-.22-.1.586.586,0,0,1-.229-.073,1.183,1.183,0,0,0-.474-.071,1.182,1.182,0,0,0-.474.071m4.04.077a.763.763,0,0,1-.073.294,1.43,1.43,0,0,0-.107.359.962.962,0,0,1-.1.315.524.524,0,0,0-.068.25.729.729,0,0,1-.07.284,1.446,1.446,0,0,0-.105.349.846.846,0,0,1-.082.273,1.231,1.231,0,0,0-.093.345.868.868,0,0,1-.091.317.681.681,0,0,0-.08.278,1.15,1.15,0,0,1-.107.36.605.605,0,0,0-.071.276.553.553,0,0,1-.073.27.95.95,0,0,0-.107.323,1.453,1.453,0,0,1-.1.353.813.813,0,0,0-.068.162,1.432,1.432,0,0,0,.391.028c.476,0,.549-.058.592-.471.045-.436.123-.477.921-.477.78,0,.853.044.91.549.041.367.09.4.6.4.413,0,.407,0,.309-.19a1.453,1.453,0,0,1-.1-.353.944.944,0,0,0-.107-.323.555.555,0,0,1-.073-.271.794.794,0,0,0-.073-.308,1.438,1.438,0,0,1-.108-.356,1.375,1.375,0,0,0-.1-.342.615.615,0,0,1-.067-.229,1.826,1.826,0,0,0-.1-.385,1.842,1.842,0,0,1-.1-.379.662.662,0,0,0-.075-.238.669.669,0,0,1-.075-.239,5.72,5.72,0,0,0-.258-.9,1.952,1.952,0,0,1-.078-.312l-.024-.162h-.987v.152m3.99-.1a1.18,1.18,0,0,1-.255.1,1.071,1.071,0,0,0-.564.485.415.415,0,0,1-.106.165.265.265,0,0,0-.073.182.737.737,0,0,1-.086.281,7.559,7.559,0,0,0,0,2.4.667.667,0,0,1,.086.261c0,.611,1.283,1.288,1.864.985a.655.655,0,0,1,.21-.075c.284,0,.777-.64.852-1.107.046-.287-.03-.345-.611-.463-.154-.031-.155-.031-.185.227a.808.808,0,0,1-.107.343.289.289,0,0,0-.076.135c0,.168-.392.318-.67.255-.865-.194-.908-3.2-.049-3.483.373-.123.671.07.874.567.046.113.079.134.164.107.058-.019.228-.062.377-.095.32-.072.341-.107.205-.36a.98.98,0,0,1-.1-.243c0-.411-1.351-.931-1.746-.672m2.866.012c-.013.034-.018,1.151-.011,2.481l.013,2.419h.7l.025-1.089c.03-1.322-.029-1.231.8-1.231.805,0,.745-.1.76,1.222l.013,1.1h.8l.013-2.483.013-2.484-.412.015-.412.014-.025.921-.025.921-.125.035a4.445,4.445,0,0,1-.65.04c-.781.007-.747.056-.747-1.045v-.9h-.351c-.234,0-.359.021-.374.062m4.239,0c-.013.034-.018,1.151-.011,2.481l.013,2.419h2.544v-.6l-.834-.013-.834-.014-.057-.19a5.684,5.684,0,0,1,.019-1.491c.028-.044.219-.062.664-.062.777,0,.817-.018.817-.376V10.9h-.695c-.889,0-.869.016-.843-.67.025-.67-.03-.627.813-.627.9,0,.874.011.874-.355V8.956H28.137a3.948,3.948,0,0,0-1.248.062m3.53,2.419.013,2.481,1.361.013,1.362.013-.015-.312-.015-.313-.9-.013c-.773-.011-.906-.025-.96-.1a12.441,12.441,0,0,1-.062-2.169V8.956h-.8l.013,2.481m3.492,0,.013,2.481h2.644l.015-.287c.018-.348.147-.3-.912-.334-1.144-.036-1.022.24-1.023-2.31V8.956H33.9l.013,2.481m4.276-2.353a.918.918,0,0,0-.05.262.455.455,0,0,1-.075.231.484.484,0,0,0-.073.249.769.769,0,0,1-.075.3,1.333,1.333,0,0,0-.105.349,1.014,1.014,0,0,1-.1.316.529.529,0,0,0-.069.235,1.426,1.426,0,0,1-.1.378,1.42,1.42,0,0,0-.1.391.457.457,0,0,1-.073.235.492.492,0,0,0-.076.246,1.174,1.174,0,0,1-.1.367,1.1,1.1,0,0,0-.1.34.578.578,0,0,1-.059.231,2.013,2.013,0,0,0-.151.706,1.79,1.79,0,0,0,.412.027c.418,0,.443-.02.446-.349a1.079,1.079,0,0,1,.113-.349l.112-.224.646-.014c.813-.018.9.013.947.33a1.884,1.884,0,0,0,.117.419l.084.186h.773V13.8a.457.457,0,0,0-.073-.237.458.458,0,0,1-.075-.232,1.466,1.466,0,0,0-.1-.388,1.426,1.426,0,0,1-.1-.378.521.521,0,0,0-.069-.235,1.119,1.119,0,0,1-.1-.346.61.61,0,0,0-.077-.263.613.613,0,0,1-.078-.263,1.507,1.507,0,0,0-.1-.36,1.526,1.526,0,0,1-.1-.361.613.613,0,0,0-.078-.263.6.6,0,0,1-.074-.263,1.643,1.643,0,0,0-.1-.385,1.582,1.582,0,0,1-.1-.322,1.914,1.914,0,0,0-.113-.362l-.084-.19h-.441c-.427,0-.442,0-.489.128m4.74,2.368v2.5l.337-.015.337-.015.025-1.97a17.684,17.684,0,0,1,.066-1.858.341.341,0,0,0,.133.162c.067.036.1.13.124.337a2.64,2.64,0,0,0,.1.488,1.314,1.314,0,0,1,.072.363,1.05,1.05,0,0,0,.072.335,2.212,2.212,0,0,1,.107.485,1.707,1.707,0,0,0,.1.446.83.83,0,0,1,.068.313,1.778,1.778,0,0,0,.1.462,1.874,1.874,0,0,1,.1.373c0,.078.049.089.4.089h.4l.035-.162a.7.7,0,0,1,.078-.216,1.453,1.453,0,0,0,.089-.382,2.028,2.028,0,0,1,.094-.42,1.471,1.471,0,0,0,.078-.359.961.961,0,0,1,.078-.325A1.031,1.031,0,0,0,46,11.748a1.6,1.6,0,0,1,.1-.408.852.852,0,0,0,.068-.321,1.086,1.086,0,0,1,.1-.389c.053-.111.121-.268.151-.347.106-.284.126-.046.151,1.782l.025,1.854h.648l.013-2.481.013-2.481h-.593c-.688,0-.713.016-.779.5a1.078,1.078,0,0,1-.083.33,1,1,0,0,0-.076.324,1.5,1.5,0,0,1-.093.393,1.551,1.551,0,0,0-.1.374,1.019,1.019,0,0,1-.077.3,1.409,1.409,0,0,0-.09.357,1.982,1.982,0,0,1-.1.4c-.026.051-.073.156-.1.233-.077.194-.169.144-.219-.12a1.991,1.991,0,0,0-.113-.378.974.974,0,0,1-.072-.339A.841.841,0,0,0,44.7,11a1.6,1.6,0,0,1-.107-.434.812.812,0,0,0-.08-.321,1,1,0,0,1-.088-.363,1.378,1.378,0,0,0-.089-.394.913.913,0,0,1-.083-.3l-.034-.237H42.927v2.5m6.559-2.421a.8.8,0,0,1-.26.072,1.763,1.763,0,0,0-.713.695c0,.054-.023.105-.052.115a5.413,5.413,0,0,0-.175,2.443,1.187,1.187,0,0,1,.077.364.306.306,0,0,0,.051.2.587.587,0,0,1,.121.2,1.6,1.6,0,0,0,.668.651,1.863,1.863,0,0,1,.29.1c.57.254,1.961-.291,1.963-.769a.663.663,0,0,1,.082-.234,6.137,6.137,0,0,0,.026-2.749c-.028-.051-.1-.2-.159-.332a1.682,1.682,0,0,0-1.919-.76m3.13,1.631c.021,1.729.086,2.405.253,2.622.2.261.493.51.6.51a.98.98,0,0,1,.3.075,1.71,1.71,0,0,0,.98,0A.616.616,0,0,1,55,13.8a1.515,1.515,0,0,0,.7-.722,1.315,1.315,0,0,1,.075-.327,9.413,9.413,0,0,0,.075-2V8.956h-.8V10.72c0,1.884-.021,2.055-.287,2.32a.884.884,0,0,1-1.061-.046c-.188-.188-.215-.438-.245-2.268l-.028-1.746-.415-.014-.416-.015.021,1.71m4.349-1.644c-.013.034-.018,1.151-.011,2.481l.013,2.419h.649l.025-1.545c.023-1.421.032-1.547.112-1.562.048-.009.088.013.089.049a.466.466,0,0,0,.1.191.459.459,0,0,1,.1.205.468.468,0,0,0,.1.207.464.464,0,0,1,.1.225.238.238,0,0,0,.075.16.2.2,0,0,1,.075.113,3.308,3.308,0,0,0,.256.585,1.466,1.466,0,0,1,.076.15c.1.236.429.934.47,1a.863.863,0,0,1,.078.162c.025.073.092.087.423.087h.393V8.951l-.362.015-.362.015-.025,1.507L59.312,12l-.125-.062a.253.253,0,0,1-.14-.194.34.34,0,0,0-.087-.192.2.2,0,0,1-.072-.131.884.884,0,0,0-.094-.256c-.105-.207-.228-.472-.3-.658a1.881,1.881,0,0,0-.1-.2c-.024-.041-.093-.187-.154-.324-.223-.506-.266-.6-.309-.673a2.039,2.039,0,0,1-.1-.212c-.061-.154-.814-.219-.869-.075m3.9-.03a1.159,1.159,0,0,0,0,.537c.025.065.12.079.522.079.648,0,.595-.2.595,2.24v2.047l.114.029a2.018,2.018,0,0,0,.411.013l.3-.015.025-2.07c.014-1.139.044-2.109.067-2.156.035-.071.129-.088.549-.1l.507-.014v-.6l-1.525-.013c-.839-.007-1.54,0-1.559.021m4.754.03a.672.672,0,0,1-.075.206,1.344,1.344,0,0,0-.105.349,1.016,1.016,0,0,1-.091.3,1.117,1.117,0,0,0-.1.322.844.844,0,0,1-.083.28.9.9,0,0,0-.08.3,1.016,1.016,0,0,1-.1.343.52.52,0,0,0-.068.25.766.766,0,0,1-.075.295,1.334,1.334,0,0,0-.105.349,1.014,1.014,0,0,1-.1.316.511.511,0,0,0-.069.226,1.783,1.783,0,0,1-.1.4,1.763,1.763,0,0,0-.1.4.415.415,0,0,1-.073.213.462.462,0,0,0-.075.234l0,.137h.4c.286,0,.4-.018.4-.063a.608.608,0,0,1,.068-.192,1.393,1.393,0,0,0,.1-.356c.047-.31.143-.343.949-.326.511.011.649.029.676.089.019.041.066.131.1.2a1.266,1.266,0,0,1,.095.374l.027.249.369.015c.511.02.5.025.432-.323a2.062,2.062,0,0,0-.119-.4.579.579,0,0,1-.059-.231,1.1,1.1,0,0,0-.1-.34,1.184,1.184,0,0,1-.1-.367A.679.679,0,0,0,67.392,12a.67.67,0,0,1-.073-.274.772.772,0,0,0-.075-.289,1.728,1.728,0,0,1-.119-.374,3.738,3.738,0,0,0-.1-.385,5.875,5.875,0,0,1-.259-.957.185.185,0,0,0-.047-.139.9.9,0,0,1-.106-.327l-.059-.3h-.467c-.341,0-.467.017-.468.062m2.967,0c-.014.036-.019,1.153-.012,2.484l.013,2.419.271.016a1.794,1.794,0,0,0,.387-.013l.115-.029-.013-2.455-.013-2.455-.362-.015c-.262-.01-.369,0-.387.05m1.971,2.436v2.5l.327-.015.327-.015,0-1.53a6.92,6.92,0,0,1,.055-1.567c.07-.043.342.242.342.359a.457.457,0,0,0,.1.205.46.46,0,0,1,.1.191,1.765,1.765,0,0,0,.208.471c.023.041.065.131.093.2s.117.259.2.424.169.355.2.424a1.961,1.961,0,0,0,.1.2,3.107,3.107,0,0,1,.256.592c0,.038.133.057.4.057h.4V8.956H73v1.45c0,1.647-.018,1.754-.254,1.5a.641.641,0,0,1-.145-.208,3.042,3.042,0,0,0-.251-.593.941.941,0,0,1-.076-.15c-.015-.041-.068-.165-.118-.274s-.128-.289-.176-.4S71.854,10,71.8,9.894a.876.876,0,0,1-.1-.256.2.2,0,0,0-.072-.131.449.449,0,0,1-.105-.211c-.063-.288-.153-.34-.583-.34h-.388v2.5m5.985,0v2.5l.337-.015.337-.015.013-1.936.013-1.936.155.155c.131.131.161.207.192.493a1.818,1.818,0,0,0,.089.434,1.408,1.408,0,0,1,.087.346,3.274,3.274,0,0,0,.1.463,1.568,1.568,0,0,1,.07.4.917.917,0,0,0,.07.335,1.692,1.692,0,0,1,.1.419,3.53,3.53,0,0,0,.126.549l.091.274.365.014.365.014.112-.314a1.991,1.991,0,0,0,.114-.488.73.73,0,0,1,.073-.3.758.758,0,0,0,.073-.31,1.529,1.529,0,0,1,.1-.438,1.472,1.472,0,0,0,.1-.428.82.82,0,0,1,.068-.31,1.608,1.608,0,0,0,.1-.409,1.2,1.2,0,0,1,.113-.395,1.006,1.006,0,0,0,.109-.236c.1-.37.132,0,.156,1.741l.025,1.858h.648l.013-2.481.013-2.481h-.593c-.659,0-.754.049-.754.391a2.1,2.1,0,0,1-.1.457,2.216,2.216,0,0,0-.1.443.629.629,0,0,1-.073.256.644.644,0,0,0-.073.263,1.83,1.83,0,0,1-.1.422,1.76,1.76,0,0,0-.1.416c0,.187-.238.706-.313.681-.034-.011-.083-.131-.111-.266a1.411,1.411,0,0,0-.09-.306,1.214,1.214,0,0,1-.069-.324A1.53,1.53,0,0,0,78.315,11a1.7,1.7,0,0,1-.094-.417,1.142,1.142,0,0,0-.107-.4.688.688,0,0,1-.074-.322.839.839,0,0,0-.06-.326,1.17,1.17,0,0,1-.087-.333l-.027-.224L77.2,8.967l-.661-.014v2.5m5.437-.708c0,1.735,0,1.8.114,2.134.179.536.485.917.737.917a.959.959,0,0,1,.263.075c.54.225,1.828-.166,1.828-.556a.206.206,0,0,1,.062-.11c.135-.135.18-.741.183-2.489l0-1.758h-.8l0,1.733c0,1.886-.028,2.11-.263,2.346a.914.914,0,0,1-.99.011c-.3-.31-.288-.237-.3-2.23L82.8,8.981l-.411-.014-.411-.014v1.791m5.187-1.712a.562.562,0,0,1-.2.073c-.152,0-.6.412-.6.548A.226.226,0,0,1,86.3,9.8a1.342,1.342,0,0,0,.029.981,2.055,2.055,0,0,0,.807.757l.51.238A2.307,2.307,0,0,1,88,11.97c.031.029.116.1.187.147a.649.649,0,0,1,.182.666c-.074.268-.1.291-.4.407-.482.183-.821-.008-1-.567l-.108-.327-.254.03c-.52.06-.586.123-.454.438a.985.985,0,0,1,.075.3,1.507,1.507,0,0,0,.682.707,1.917,1.917,0,0,1,.3.1,1.532,1.532,0,0,0,.9,0,3.056,3.056,0,0,1,.338-.1c.748-.166,1.025-1.484.438-2.082a3.242,3.242,0,0,0-.979-.637,1.359,1.359,0,0,1-.88-.878c0-.7.988-.741,1.19-.053.092.312.161.362.4.29a1.369,1.369,0,0,1,.295-.057c.154,0,.167-.061.09-.391a1.023,1.023,0,0,0-.356-.631,1.616,1.616,0,0,0-1.471-.3m2.943,2.419v2.5l.387-.015.387-.015V8.981L90.5,8.966l-.387-.015v2.5m2.851-2.388a1.3,1.3,0,0,0-.34.17.247.247,0,0,1-.115.074,1.771,1.771,0,0,0-.362.549,6.011,6.011,0,0,0,0,3.142c.2.379.316.534.435.6.069.037.125.083.125.1s.069.053.153.071a1.4,1.4,0,0,1,.287.1,1.266,1.266,0,0,0,.816,0,1.389,1.389,0,0,1,.274-.1,1.316,1.316,0,0,0,.714-.823.442.442,0,0,1,.073-.23c.168-.222.015-.38-.452-.467-.216-.04-.23-.036-.279.089-.028.072-.072.17-.1.218a.478.478,0,0,0-.046.175c0,.208-.278.427-.557.447a.621.621,0,0,1-.707-.459,7.579,7.579,0,0,1-.13-1.247c0-1.384.22-1.816.912-1.778a.653.653,0,0,1,.485.5c0,.175.006.176.5.091l.353-.06-.033-.2a1.483,1.483,0,0,0-2.01-.969m4.7-.043c-.013.034-.018,1.151-.011,2.481l.013,2.419.387.015.387.015v-1c0-1.341-.057-1.246.759-1.263l.663-.014v-.6l-.645-.014c-.812-.018-.776.015-.776-.706,0-.793-.057-.747.947-.763l.823-.013.015-.312.015-.312H98.965a4.259,4.259,0,0,0-1.3.062m3.492,0c-.013.034-.018,1.151-.011,2.481l.013,2.419,1.284.013,1.284.013V13.3h-.819c-1.046,0-.976.064-.976-.892,0-.908-.047-.854.748-.854.728,0,.748-.011.748-.384V10.9h-.652c-.87,0-.845.018-.845-.616,0-.707-.038-.677.873-.693l.748-.013.015-.312.015-.312h-1.2c-.915,0-1.207.015-1.225.062m4.254.049a1.47,1.47,0,0,0-.884,1.211,1.794,1.794,0,0,0,.884,1.224c.089.031.162.077.162.1s.035.046.078.046a2.286,2.286,0,0,1,1.039.621.662.662,0,0,1,.005.613.706.706,0,0,1-.841.343.9.9,0,0,0-.224-.081c-.084,0-.306-.36-.307-.5,0-.362-.229-.438-.735-.245-.374.142.2,1.281.7,1.375a1.37,1.37,0,0,1,.3.1,1.465,1.465,0,0,0,.874,0,2.925,2.925,0,0,1,.325-.1,1.181,1.181,0,0,0,.379-.266,1.323,1.323,0,0,0-.439-2.215c-.368-.2-.387-.206-.676-.344-.529-.252-.837-.767-.611-1.02.259-.288.313-.322.514-.322.309,0,.574.267.667.673.037.163.042.163.565.1.251-.033.316-.171.192-.408-.025-.048-.105-.21-.178-.361a1.423,1.423,0,0,0-1.784-.537m2.656.213V9.6h.518c.716,0,.65-.22.679,2.239l.025,2.075.386.015.387.015V11.86c0-2.458-.055-2.248.6-2.268l.474-.014.015-.312.015-.312h-3.1V9.28m3.853,2.155.013,2.483h.8V8.981l-.412-.014-.412-.015.013,2.484m1.567-2.242a1.445,1.445,0,0,0,.093.362,1.522,1.522,0,0,1,.1.341,1.427,1.427,0,0,0,.105.349.772.772,0,0,1,.07.3.6.6,0,0,0,.07.274,1.082,1.082,0,0,1,.1.326,1.422,1.422,0,0,0,.1.349.651.651,0,0,1,.07.247.922.922,0,0,0,.07.28,2.068,2.068,0,0,1,.1.385,1.089,1.089,0,0,0,.105.33.61.61,0,0,1,.07.274.776.776,0,0,0,.072.3,1.414,1.414,0,0,1,.105.362c.04.268.082.286.621.264.328-.013.375-.027.389-.115a1.326,1.326,0,0,1,.088-.257.807.807,0,0,0,.072-.267.814.814,0,0,1,.071-.267,2.449,2.449,0,0,0,.122-.382,5.152,5.152,0,0,1,.233-.823,1.774,1.774,0,0,0,.1-.347,1.371,1.371,0,0,1,.1-.334.742.742,0,0,0,.072-.276,1.017,1.017,0,0,1,.1-.339,1.056,1.056,0,0,0,.1-.349.5.5,0,0,1,.076-.246.51.51,0,0,0,.073-.262.9.9,0,0,1,.1-.351c.18-.335.156-.362-.312-.362h-.411l-.083.212a2.335,2.335,0,0,0-.115.447.617.617,0,0,1-.074.262.721.721,0,0,0-.078.288,1.556,1.556,0,0,1-.1.4.691.691,0,0,0-.069.263,1.75,1.75,0,0,1-.1.412,1.823,1.823,0,0,0-.1.435.673.673,0,0,1-.073.276.628.628,0,0,0-.073.254c-.006.409-.16.515-.245.17-.027-.11-.084-.289-.125-.4A1.324,1.324,0,0,1,115,11.6a.432.432,0,0,0-.052-.227,1.118,1.118,0,0,1-.1-.347,1.313,1.313,0,0,0-.1-.352.911.911,0,0,1-.077-.3,1.429,1.429,0,0,0-.077-.331,2.052,2.052,0,0,1-.1-.374,1.388,1.388,0,0,0-.092-.337.71.71,0,0,1-.074-.212l-.035-.162h-.838l.031.237m5.138-.2a.283.283,0,0,0-.033.152.684.684,0,0,1-.068.254,1.383,1.383,0,0,0-.1.34,1.349,1.349,0,0,1-.106.349.768.768,0,0,0-.075.3.486.486,0,0,1-.073.249.493.493,0,0,0-.076.247,1.17,1.17,0,0,1-.1.367,1.138,1.138,0,0,0-.1.376.53.53,0,0,1-.069.256,1,1,0,0,0-.106.323,1.515,1.515,0,0,1-.106.359.758.758,0,0,0-.069.289.578.578,0,0,1-.071.264,1.114,1.114,0,0,0-.106.348.616.616,0,0,1-.079.265c-.186.115-.033.221.318.22.482,0,.586-.1.586-.528,0-.351.145-.418.9-.418.8,0,.869.042.926.545.042.374.084.4.592.4.4,0,.428-.023.308-.214a1.116,1.116,0,0,1-.1-.346.608.608,0,0,0-.077-.263.613.613,0,0,1-.078-.263,1.512,1.512,0,0,0-.1-.361,1.522,1.522,0,0,1-.1-.36.613.613,0,0,0-.078-.263.611.611,0,0,1-.078-.263,1.847,1.847,0,0,0-.1-.385,1.743,1.743,0,0,1-.1-.335,1.332,1.332,0,0,0-.1-.324.725.725,0,0,1-.073-.279.733.733,0,0,0-.068-.274,1.381,1.381,0,0,1-.1-.34,1.352,1.352,0,0,0-.106-.349.691.691,0,0,1-.075-.256c0-.112-.861-.183-.965-.079m2.982.029c-.013.034-.018,1.151-.011,2.481l.013,2.419,1.359.013,1.359.013V13.3h-1.848l-.049-.128c-.029-.075-.048-.964-.048-2.17V8.956h-.376c-.254,0-.383.02-.4.062M12.477,9.709a.7.7,0,0,1,.5.455,1.369,1.369,0,0,0,.1.28,6.062,6.062,0,0,1-.034,2.133.8.8,0,0,1-1.568,0,.451.451,0,0,0-.079-.211,7.762,7.762,0,0,1,.031-1.949A.659.659,0,0,0,11.5,10.2c0-.132.31-.433.5-.485a.617.617,0,0,1,.474,0m37.737,0c.114,0,.444.284.444.381a.525.525,0,0,0,.087.2,6.929,6.929,0,0,1-.012,2.407c-.433.763-1.572.621-1.572-.2a2.33,2.33,0,0,0-.075-.436,2.981,2.981,0,0,1,0-1.289,2.765,2.765,0,0,0,.074-.429c0-.122.075-.24.287-.463a.677.677,0,0,1,.531-.206,1.729,1.729,0,0,0,.235.025m-11.371.4a1.4,1.4,0,0,1,.039.277.83.83,0,0,0,.08.3.931.931,0,0,1,.075.357.935.935,0,0,0,.074.358c.146.281.158.829.02.866a3.043,3.043,0,0,1-.892-.013c-.128-.037-.161-.29-.054-.424a1.246,1.246,0,0,0,.078-.353,1.193,1.193,0,0,1,.08-.353,1.376,1.376,0,0,0,.09-.374c.087-.6.32-.965.411-.641m27.358.1a1.062,1.062,0,0,1,.119.411,1.1,1.1,0,0,0,.069.355,2.081,2.081,0,0,1,.1.435,1.862,1.862,0,0,0,.109.433c.161.355.052.446-.546.455-.5.007-.552-.034-.51-.408a1.649,1.649,0,0,1,.106-.441.822.822,0,0,0,.071-.317,1.106,1.106,0,0,1,.074-.355,1.979,1.979,0,0,0,.1-.435c.055-.469.11-.493.3-.133m-49.691.255a1.127,1.127,0,0,0,.082.367,1.193,1.193,0,0,1,.082.379,1.728,1.728,0,0,0,.1.454c.222.44.072.639-.481.639s-.692-.171-.481-.589a1.707,1.707,0,0,0,.1-.454,1.271,1.271,0,0,1,.076-.374.874.874,0,0,0,.078-.28c.066-.445.087-.505.195-.547.151-.059.212.039.25.4m102.779-.121a1.762,1.762,0,0,0,.1.45,1.813,1.813,0,0,1,.1.475.866.866,0,0,0,.068.326c.3.595.028.818-.829.676-.211-.035-.262-.274-.119-.557a1.637,1.637,0,0,0,.1-.423,1.6,1.6,0,0,1,.106-.424.816.816,0,0,0,.071-.315,1.228,1.228,0,0,1,.054-.334c.1-.291.345-.2.345.125" transform="translate(18.98 45.39)" fill="#272a31" fill-rule="evenodd"/>
    <path id="path0" d="M74.686,53.336a3.555,3.555,0,0,0-.5.183c-.126.061-.35.162-.5.226a5.625,5.625,0,0,0-.574.3,2.241,2.241,0,0,1-.536.239,1.882,1.882,0,0,0-.991.636,5.087,5.087,0,0,1-1.114,1.09A5.66,5.66,0,0,0,68.6,58.423a11.7,11.7,0,0,1-.647,1.218.524.524,0,0,0-.119.261,6.78,6.78,0,0,1-.262.745,9.3,9.3,0,0,0-.728,3.385,13.193,13.193,0,0,0,.3,3.648.649.649,0,0,1,.109.31.906.906,0,0,0,.153.385.943.943,0,0,1,.154.345.815.815,0,0,0,.237.345,1.785,1.785,0,0,1,.339.481,2.661,2.661,0,0,0,.459.613,3.43,3.43,0,0,1,.493.63,7.42,7.42,0,0,0,1.391,1.455c.181.148.485.407.676.577a7.524,7.524,0,0,0,.672.527,1.06,1.06,0,0,1,.325.282c0,.035.164.112.364.172a3.483,3.483,0,0,1,.632.266,2.932,2.932,0,0,0,.651.252,3.254,3.254,0,0,1,.825.385,3.84,3.84,0,0,0,1.807.6,1.547,1.547,0,0,1,.624.142,14.755,14.755,0,0,0,3.506.2c.77-.123,1.2-.973.681-1.362-.188-.142-.333-.166-1.11-.182a9.174,9.174,0,0,1-2.35-.291,7.177,7.177,0,0,0-1.061-.185,3.241,3.241,0,0,1-.917-.2.68.68,0,0,0-.326-.113.726.726,0,0,1-.359-.153.816.816,0,0,0-.253-.154A8.581,8.581,0,0,1,72.849,71.4c-.485-.486-.985-.969-1.112-1.073a4.694,4.694,0,0,1-1.23-2.474,2.079,2.079,0,0,0-.176-.459c-.427-.535-.413-3.517.02-4.39a9.018,9.018,0,0,0,.313-.866,8.368,8.368,0,0,1,.3-.843c.054-.105.185-.381.291-.613l.367-.8a7.041,7.041,0,0,1,2.027-2.286c.167-.112.494-.342.726-.512a10.981,10.981,0,0,1,1.532-1.006,3.151,3.151,0,0,1,.943-.371,1.286,1.286,0,0,0,.415-.153,1.29,1.29,0,0,1,.467-.153,1.3,1.3,0,0,0,.422-.106,11.983,11.983,0,0,1,1.479-.465,1.06,1.06,0,0,0,.639-.784c0-.219-.13-.309-.82-.567l-.6-.223-1.953.007a21.507,21.507,0,0,0-2.221.079m37.339.135a4.864,4.864,0,0,1-1.118.544.725.725,0,0,0-.283.153.7.7,0,0,1-.3.153,7.22,7.22,0,0,0-1.482.708c-.147.1-.443.305-.657.457a4.6,4.6,0,0,1-1.35.673.319.319,0,0,0-.208.11.7.7,0,0,1-.335.161,1.48,1.48,0,0,0-.4.153,1.523,1.523,0,0,1-.438.154.76.76,0,0,0-.362.155,3.758,3.758,0,0,1-1.005.52c-.779.317-.548,1.077.55,1.812a1.425,1.425,0,0,1,.611,1.048,1.9,1.9,0,0,0,.115.611,1.649,1.649,0,0,1,0,1.175.877.877,0,0,0-.112.336,2.068,2.068,0,0,1-.728,1.145,3.433,3.433,0,0,0-.409.373c-.014.03-.109.178-.211.329-.281.414-.244.6.221,1.1a2,2,0,0,1,.653,2.18,4.152,4.152,0,0,0-.15.933,12.014,12.014,0,0,1-.406,2.644,2.553,2.553,0,0,0-.119,1.536,4.518,4.518,0,0,0,2.225.955c.445.1.962.238,1.149.308a6.793,6.793,0,0,0,1.028.232,6.108,6.108,0,0,1,1.66.426,5.858,5.858,0,0,0,1.518.485,17.781,17.781,0,0,1,2.029.507c1.137.364,3.944.182,3.944-.256a1.26,1.26,0,0,1,.141-.364,2.972,2.972,0,0,0-.006-2.861.748.748,0,0,1-.154-.218,6.947,6.947,0,0,0-2.6.067,3.158,3.158,0,0,1-1.148.176,2.861,2.861,0,0,0-.992.139,1.064,1.064,0,0,1-.911-.021.373.373,0,0,0-.466.007c-.311.16-.925.022-1.751-.394a2.651,2.651,0,0,1-1.13-1.488,6.726,6.726,0,0,1-.439-1.493,3.37,3.37,0,0,0-.22-.766,1.064,1.064,0,0,1-.125-.316,2.314,2.314,0,0,0-.164-.455,4.407,4.407,0,0,1-.041-2.362c.271-.413.879-.6,2.157-.663a9.7,9.7,0,0,0,1.474-.157.761.761,0,0,1,.594,0,1.113,1.113,0,0,0,.7.008,2.438,2.438,0,0,1,.7-.047c.656.106,1.389-.283,1.4-.741a.9.9,0,0,1,.112-.358,1.332,1.332,0,0,0-.038-1.129,1.548,1.548,0,0,1-.155-.364c0-.137-.412-.476-.638-.53a3.806,3.806,0,0,0-1.734.379,5.55,5.55,0,0,1-1.072.3,5.207,5.207,0,0,0-.766.154c-.305.094-1.118.271-1.808.393-.893.158-1.787-.9-1.847-2.193s.616-2,2.047-2.178a5.478,5.478,0,0,0,.766-.16,22.41,22.41,0,0,1,4.656-.216c.557.062.661.054.843-.065a.823.823,0,0,1,.345-.137,6.263,6.263,0,0,0,1.515-1.561c.668-1.28.14-1.856-1.872-2.041a11.647,11.647,0,0,1-1.225-.159,5.809,5.809,0,0,0-1.767,0m12.1,2.842a22.747,22.747,0,0,1,.012,2.872,11.981,11.981,0,0,1-.12,1.646,10.593,10.593,0,0,0-.084,1.663,6.478,6.478,0,0,1-.116,1.736,3.515,3.515,0,0,0-.1,1.094,8.916,8.916,0,0,1-.046,1.144,1.745,1.745,0,0,0,.059.8c.483,1.685-.106,4.044-1.072,4.294l-.65.165c-.445.112-.772.4-.709.621a.8.8,0,0,0,.643.5,2.515,2.515,0,0,1,.628.145,7.572,7.572,0,0,0,1.9.386,18.145,18.145,0,0,1,2.264.357,7,7,0,0,0,1.251.108,2.126,2.126,0,0,1,1.331.268,2.043,2.043,0,0,0,.894.268,1.531,1.531,0,0,1,.62.144,5.577,5.577,0,0,0,1.977.481c.892.029,1.3-.509.927-1.224-.133-.255-.156-.451-.162-1.4s-.027-1.128-.146-1.28a1.789,1.789,0,0,0-2.355-.276,2.22,2.22,0,0,1-2.524-.1,2.18,2.18,0,0,1-1.132-1.538c-.056-.241-.172-.714-.258-1.051a12.315,12.315,0,0,1-.241-2.106,8.748,8.748,0,0,0-.194-1.745,2.845,2.845,0,0,1-.11-.919,10.437,10.437,0,0,0-.121-1.4c-.153-.921-.233-1.569-.385-3.1-.459-4.628-.545-5.078-1-5.251a1.3,1.3,0,0,0-.2-.067l-.179.085M140,53.728a2.005,2.005,0,0,0-.3.587l-.179.491.009,6.321c.005,3.476-.021,6.46-.057,6.631s-.1.448-.141.616-.117.548-.168.842a3.348,3.348,0,0,1-.951,2.221c-1.031,1.053-1.028,1.516.007,1.685a16.008,16.008,0,0,1,2.1.538,2.364,2.364,0,0,0,.574.153,1.64,1.64,0,0,1,.459.115,1.552,1.552,0,0,0,.345.139c.147.044.406.132.574.2a2.107,2.107,0,0,0,.6.12,2.145,2.145,0,0,1,.651.152,13.032,13.032,0,0,0,3.039.338,9.232,9.232,0,0,1,1.225.113c1.17.216,1.683-.229,1.263-1.1a1.9,1.9,0,0,1-.15-.811c0-.406-.033-.532-.156-.644a.464.464,0,0,1-.153-.218c0-.221-.442-.691-.8-.852a3.223,3.223,0,0,0-1.813-.275,3.471,3.471,0,0,1-1.241-.1,3.173,3.173,0,0,0-.641-.166c-.88-.125-1.346-.362-1.471-.749A15.078,15.078,0,0,1,142.17,66a7.407,7.407,0,0,0-.148-1.622,2.606,2.606,0,0,1-.1-.877,17.083,17.083,0,0,0-.269-2.709c-.15-.97-.265-1.993-.342-3.063a6.98,6.98,0,0,0-.149-1.135,2.082,2.082,0,0,1-.082-.591c0-1.757-.48-2.766-1.084-2.276m-52.617.2a1.326,1.326,0,0,0-.564,1,3.271,3.271,0,0,1-.131.623,16.793,16.793,0,0,0-.093,2.144c-.009,1.235-.061,2.347-.141,3.025-.07.59-.161,1.589-.2,2.221a10.4,10.4,0,0,1-.191,1.525,2.916,2.916,0,0,0-.115.689,5.107,5.107,0,0,1-.157.926c-.38,1.5-.339,7.9.057,8.7a2.192,2.192,0,0,0,2.633.662,2.108,2.108,0,0,0,.685-.558.46.46,0,0,1,.117-.189c.345-.381.372-5.3.039-7.1-.089-.48.036-.558.887-.558a5.6,5.6,0,0,0,1.1-.107,8,8,0,0,1,.916-.162,3.993,3.993,0,0,0,.766-.157,5.871,5.871,0,0,1,.958-.188c.379-.047.827-.1,1-.126.538-.071.611.092.506,1.14-.048.476-.084,1.554-.081,2.4.007,2.16,0,2.433-.084,2.532a.36.36,0,0,0,0,.31A6.9,6.9,0,0,1,95.4,73.7c.065,1.059.234,1.446.75,1.72a1.561,1.561,0,0,0,2.359-1.192,31.133,31.133,0,0,0,0-5.773,8.277,8.277,0,0,1-.078-2.536,2.743,2.743,0,0,1,.714-.179c.753-.118.954-.207,1.015-.449.083-.331-.916-.856-1.628-.856-.434,0-.468-.073-.518-1.112a8.561,8.561,0,0,0-.118-1.147,14.007,14.007,0,0,1-.123-1.608c-.025-.716-.1-1.681-.163-2.145s-.144-1.532-.176-2.374c-.066-1.717-.158-2.106-.5-2.106-.266,0-.538.627-.6,1.388a4.2,4.2,0,0,1-.128.79,7.725,7.725,0,0,0-.078,1.355c0,5.843-.247,7.2-1.236,6.784a3.273,3.273,0,0,0-.671-.162,2.409,2.409,0,0,1-.616-.159,17.872,17.872,0,0,0-3.957-.37c-.888.063-.9.052-1.015-1.4-.052-.629-.125-1.436-.163-1.794s-.107-1.185-.154-1.838S88.2,57.009,88.16,56.6s-.073-.966-.073-1.231A2.578,2.578,0,0,0,87.721,54c-.126-.146-.143-.149-.338-.071m-31.613.811a3.661,3.661,0,0,1-.945.144c-.658.037-.794.07-1.072.257a7.956,7.956,0,0,0-1.506,1.513.438.438,0,0,1-.149.234.816.816,0,0,0-.2.375,1.028,1.028,0,0,1-.124.331,2.151,2.151,0,0,0-.145.6,3.011,3.011,0,0,1-.2.749,6.193,6.193,0,0,0-.261,1.212,6.543,6.543,0,0,1-.247,1.19,3.438,3.438,0,0,0-.16.895,2.711,2.711,0,0,1-.2.958A5.911,5.911,0,0,0,50.1,64.66a12.291,12.291,0,0,1-.789,2.974,2.219,2.219,0,0,0-.157.51,6.4,6.4,0,0,1-.274.881c-.121.316-.275.771-.341,1.011a1.449,1.449,0,0,1-.2.483.262.262,0,0,0-.076.2,4.647,4.647,0,0,1-.464,1.231,1.377,1.377,0,0,0-.148.521,1.777,1.777,0,0,1-.156.581l-.157.343.159.224c.475.667,1.081.608,1.557-.152a3.384,3.384,0,0,1,.335-.419,2.3,2.3,0,0,0,.518-1.022,1.248,1.248,0,0,1,.187-.412,7.574,7.574,0,0,0,.687-1.286,3.1,3.1,0,0,1,.527-.787l.3-.29,1.488-.029a9.678,9.678,0,0,0,2.138-.183,21.365,21.365,0,0,1,2.144-.4c.316-.044.73-.116.919-.16,1.236-.287,1.546-.075,1.877,1.281a2.877,2.877,0,0,0,.312.728,14.605,14.605,0,0,1,.951,1.875,1.614,1.614,0,0,0,.153.38,1.384,1.384,0,0,1,.153.453,1.743,1.743,0,0,0,.3.577,3.23,3.23,0,0,1,.354.616.851.851,0,0,0,.48.543c.652.249.925-.727.636-2.266A19.89,19.89,0,0,1,63.2,70.4a5.851,5.851,0,0,0-.319-1.566l-.241-.685.162-.3c.192-.35.135-.545-.227-.784a4.167,4.167,0,0,1-1.019-2.106,4.564,4.564,0,0,0-.424-1.417,2.383,2.383,0,0,1-.457-1.277,2.562,2.562,0,0,0-.442-1.326,2.738,2.738,0,0,1-.174-.689,4.737,4.737,0,0,0-.392-1.34,2.34,2.34,0,0,1-.113-.23c-.064-.155-.3-.693-.483-1.091a5.24,5.24,0,0,1-.465-1.359.929.929,0,0,0-.112-.383c-.061-.105-.177-.331-.258-.5a2.061,2.061,0,0,0-2.462-.615m104.8,0a4.288,4.288,0,0,1-.536.181,4.065,4.065,0,0,0-1.347.567,3.628,3.628,0,0,1-.629.367,1.086,1.086,0,0,0-.445.328,2.312,2.312,0,0,1-.31.405,3.322,3.322,0,0,0-.907,1.64,1.439,1.439,0,0,1-.126.574,3.281,3.281,0,0,0-.224.689c-.055.253-.135.6-.179.766a3.17,3.17,0,0,0-.085.613,2.151,2.151,0,0,1-.122.613,4.5,4.5,0,0,0-.177.9,2.067,2.067,0,0,1-.171.728,4.981,4.981,0,0,0-.489,1.742,2.872,2.872,0,0,1-.121.668,2.707,2.707,0,0,0-.146.531,1.465,1.465,0,0,1-.183.519,1.754,1.754,0,0,0-.162.656,2.7,2.7,0,0,1-.159.728,12.209,12.209,0,0,0-.72,1.877,1.2,1.2,0,0,1-.143.421,2.5,2.5,0,0,0-.2.533,5.78,5.78,0,0,1-.314.826,5.042,5.042,0,0,0-.308.844,3.208,3.208,0,0,1-.156.53.591.591,0,0,0,.185.829c.468.429.758.383,1.212-.195a2.178,2.178,0,0,1,.426-.459.071.071,0,0,0,.065-.075,2.163,2.163,0,0,1,.306-.479,1.656,1.656,0,0,0,.306-.538,3.959,3.959,0,0,1,.345-.8,4.392,4.392,0,0,0,.345-.774,2.037,2.037,0,0,1,.521-.784,5.293,5.293,0,0,0,.454-.6c.331-.5.431-.554.995-.554a1.258,1.258,0,0,0,.611-.114,29.9,29.9,0,0,1,5.05-.054c.116.062.238.054.483-.03a.837.837,0,0,1,1.114.57,9.818,9.818,0,0,0,.533,1.353,1.044,1.044,0,0,1,.119.358.226.226,0,0,0,.072.174.887.887,0,0,1,.165.33,2.109,2.109,0,0,0,.342.577,1.293,1.293,0,0,1,.3.614,1.643,1.643,0,0,0,.2.551.9.9,0,0,1,.151.374,1.162,1.162,0,0,0,.257.459,2.3,2.3,0,0,1,.347.59c.264.807,1,.848,1.171.066a2.13,2.13,0,0,0,.04-1.284,7.639,7.639,0,0,1-.171-.857,2.458,2.458,0,0,0-.112-.536,6.9,6.9,0,0,1-.108-1.1,3.69,3.69,0,0,0-.156-1.149,1.783,1.783,0,0,1,0-1.74c.211-.175-.219-.839-.543-.839-.15,0-.491-.386-.542-.613a6.422,6.422,0,0,0-.431-1.024,1.945,1.945,0,0,1-.095-.536,2.817,2.817,0,0,0-.434-1.41,1.91,1.91,0,0,1-.3-.966,1.111,1.111,0,0,0-.152-.621.941.941,0,0,1-.153-.423,1.254,1.254,0,0,0-.141-.459,4.793,4.793,0,0,1-.278-.918,6.92,6.92,0,0,0-.7-1.921.417.417,0,0,1-.107-.2.281.281,0,0,0-.105-.168.854.854,0,0,1-.157-.409,1.083,1.083,0,0,0-.166-.449.961.961,0,0,1-.154-.423,3.282,3.282,0,0,0-.625-1.388l-.258-.325-.818.005a3.7,3.7,0,0,0-1.048.106M39.5,55.931c-1.078.057-1.379.149-1.793.547a1.357,1.357,0,0,1-.386.294.074.074,0,0,0-.08.064,1.784,1.784,0,0,1-.3.4,3.789,3.789,0,0,0-.4.516c-.224.418.347.633.76.286a1.105,1.105,0,0,1,.286-.2.84.84,0,0,0,.248-.153.8.8,0,0,1,.417-.153,1.578,1.578,0,0,0,.507-.123,3.348,3.348,0,0,1,2.8.507,2.478,2.478,0,0,1,1.05,1.237,6.706,6.706,0,0,0,.35.713,1.129,1.129,0,0,1,.1.51,2.784,2.784,0,0,0,.145.768,6.445,6.445,0,0,1,.228.907c.046.274.12.67.165.881a1.62,1.62,0,0,1-.119,1.11,2.672,2.672,0,0,0-.179.613,5.6,5.6,0,0,1-.432,1.611.454.454,0,0,0-.113.178,3.174,3.174,0,0,1-.574.832l-.613.526a6.977,6.977,0,0,1-1.482,1,5.673,5.673,0,0,1-3.007.073,1.385,1.385,0,0,0-.354-.2,3.649,3.649,0,0,1-1.19-.759,6.084,6.084,0,0,1-.958-1.315c-.053-.084-.149-.256-.214-.383s-.167-.316-.227-.421a.848.848,0,0,1-.11-.329,1.1,1.1,0,0,0-.135-.383,17.985,17.985,0,0,1-.057-4.574c.069-.188.16-.479.2-.646a1.393,1.393,0,0,1,.146-.389,2.14,2.14,0,0,0,.12-.624l.05-.538-.205-.039c-.225-.043-.2-.076-.724.986-.143.289-.306.616-.364.728a.94.94,0,0,0-.1.33,1.269,1.269,0,0,1-.152.409,3.231,3.231,0,0,0-.462,1.294,1.845,1.845,0,0,1-.151.62,3.072,3.072,0,0,0-.162,1.293,9.44,9.44,0,0,1-.078,1.242,6.451,6.451,0,0,0,.245,2.277,1.569,1.569,0,0,1,.147.506,6.444,6.444,0,0,0,.488,1.553,1.075,1.075,0,0,1,.126.383.723.723,0,0,0,.152.345.747.747,0,0,1,.151.273.874.874,0,0,0,.238.306,2.458,2.458,0,0,1,.384.493,4.179,4.179,0,0,0,3.72,2.258,15.041,15.041,0,0,0,3.115-.232,2.344,2.344,0,0,1,.5-.158A2.292,2.292,0,0,0,41.754,73a1.37,1.37,0,0,1,.34-.142,2.508,2.508,0,0,0,.756-.516.221.221,0,0,1,.164-.1.366.366,0,0,0,.216-.172,3.679,3.679,0,0,1,.3-.368c.1-.107.336-.4.525-.651a6.948,6.948,0,0,0,.686-1.068c.046-.084.183-.308.305-.5a7.172,7.172,0,0,0,1-2.426,4.986,4.986,0,0,1,.187-.774,11.1,11.1,0,0,0-.141-4.5,1.869,1.869,0,0,1-.121-.47,1.767,1.767,0,0,0-.155-.5,1.732,1.732,0,0,1-.153-.5.37.37,0,0,0-.107-.25,4.41,4.41,0,0,1-.5-1.287,4.26,4.26,0,0,0-.35-.792,4.235,4.235,0,0,1-.267-.521A6.55,6.55,0,0,0,43.8,56.8l-.63-.621-.689-.049a4.926,4.926,0,0,1-1-.16c-.321-.117-.489-.12-1.992-.041m121.259,4.678c.132.046.241.106.241.134a1.5,1.5,0,0,0,.249.322,3.945,3.945,0,0,1,.67.951.418.418,0,0,0,.109.188,3.408,3.408,0,0,1,.44,1.193,1.566,1.566,0,0,0,.171.5,4.13,4.13,0,0,1,.308.689c.118.316.283.723.367.9.163.352.2.824.077.947a4.5,4.5,0,0,1-2.354-.328,3.682,3.682,0,0,0-1.386-.145c-1.468,0-1.758-.169-1.409-.821a1.5,1.5,0,0,0,.154-.681.893.893,0,0,1,.153-.588.756.756,0,0,0,.153-.266.473.473,0,0,1,.153-.21.458.458,0,0,0,.154-.222,1.085,1.085,0,0,1,.117-.307,4.052,4.052,0,0,0,.232-.781c.259-1.253.7-1.721,1.4-1.477M56.687,62.745a4.784,4.784,0,0,1,1.078,1.449,4.9,4.9,0,0,0,.655,1.248c.726,1.24.16,1.409-2.234.665a4.353,4.353,0,0,0-1.34-.145c-1.617,0-1.743-.209-.9-1.479a2.87,2.87,0,0,0,.3-.511,1.8,1.8,0,0,1,.26-.406,5.32,5.32,0,0,0,.357-.523,1.219,1.219,0,0,1,1.832-.3" transform="translate(-8.977 -30.658)" fill="#272a31" fill-rule="evenodd"/>
    <path id="Path_142" data-name="Path 142" d="M115.728,23.1h0l-.415,3.089v5.4l-.36,1.864-.361,1.5.361,1.633v1.769l-.361,1.946-.817.633-1,.367-.391.394.147.355.855.239,1.206.3.8.127,1.678.228.728.1,1.219.114h.647l1.125.48.489.134h.563l1.625.428.511.073.509-.073h0l.4-.667h0l-.2-.594-.136-1.125-.062-1.239-1.02-.647h-.427l-.647.147-.552.208-.812.209-1.094-.209-.636-.355-.875-1.27-.384-1.677-.094-1.208-.073-1.408-.219-1.239v-.583l-.136-1.094h0l-.281-2.2-.167-1.739-.311-2.641-.178-1.239-.125-.417h0" transform="translate(-104)" fill="#272a31"/>
  </g>
</svg>
