<svg xmlns="http://www.w3.org/2000/svg" width="180.361" height="152.078" viewBox="0 0 180.361 152.078">
  <g id="logo_concert" transform="translate(-1304 -1034.922)">
    <g id="ticket-de-concierto" transform="translate(1304 933.252)">
      <path id="Path_137" data-name="Path 137" d="M174.836,143.191h.123a5.4,5.4,0,0,0,5.4-5.4V107.072a5.4,5.4,0,0,0-5.4-5.4H5.4a5.4,5.4,0,0,0-5.4,5.4V203.4a5.4,5.4,0,0,0,5.4,5.4H174.959a5.4,5.4,0,0,0,5.4-5.4V172.682a5.4,5.4,0,0,0-5.4-5.4h-.123a12.044,12.044,0,1,1,0-24.088ZM10.8,112.474H52.6V198H10.8Zm158.753,64.994V198H63.408V112.474H169.557V133a22.852,22.852,0,0,0,0,44.466Z" transform="translate(0)" fill="#ee523c"/>
      <path id="Path_138" data-name="Path 138" d="M268.981,165.978H236.715a5.4,5.4,0,0,0-5.4,5.4V199.2a13.979,13.979,0,1,0,10.8,13.612V191.958h21.462V199.2a13.978,13.978,0,1,0,10.8,13.612V171.38A5.4,5.4,0,0,0,268.981,165.978ZM228.137,220.1c-1.751,0-7.491-4.838-7.491-6.589s6.609-7.371,8.36-7.371,6.21,4.913,6.21,6.665S229.888,220.1,228.137,220.1Zm13.98-35.038V173.337h21.462v11.729ZM260.4,220.1c-1.751,0-8.134-5.544-8.134-7.3s6.382-7.734,8.134-7.734,7.126,5.983,7.126,7.734S262.154,220.1,260.4,220.1Z" transform="translate(-137.031 -41.148)" fill="#ee523c"/>
      <path id="Path_139" data-name="Path 139" d="M73.866,284.982l-22.9-9.026A5.4,5.4,0,0,0,47,286.007l20.651,4.375L47,294.008a5.4,5.4,0,0,0,1.983,10.429c1.407,0-.017.409,24.879-9.4A5.407,5.407,0,0,0,73.866,284.982Z" transform="translate(-27.886 -111.277)" fill="#ee523c"/>
      <path id="Path_140" data-name="Path 140" d="M71.887,233.709h-22.9a5.4,5.4,0,1,0,0,10.8h22.9a5.4,5.4,0,1,0,0-10.8Z" transform="translate(-27.889 -84.487)" fill="#ee523c"/>
      <path id="Path_141" data-name="Path 141" d="M48.987,171.515h22.9a5.4,5.4,0,0,0,0-10.8H67.394v-3.705a11.9,11.9,0,1,0-23.809,0v9.107A5.4,5.4,0,0,0,48.987,171.515Zm.56-15.61c0-.607,4.653-5.661,5.26-5.661S60.3,155.3,60.3,155.905l.905,5.09H50.5l-.952-5.09Z" transform="translate(-27.888 -27.79)" fill="#ee523c"/>
    </g>
    <text id="BT-Concerts" transform="translate(1314 1180)" fill="#ee523c" font-size="28" font-family="SegoeUI-Bold, Segoe UI" font-weight="700"><tspan x="0" y="0">BT-Concerts</tspan></text>
  </g>
</svg>
